<?xml version="1.0"?>
<svg width="12cm" height="4cm" viewBox="0 0 1200 400"
     xmlns="http://www.w3.org/2000/svg" version="1.2" baseProfile="tiny">
  <desc>Example rect02 - rounded rectangles</desc>
  <!-- Show outline of canvas using 'rect' element -->
  <rect x="1" y="1" width="1198" height="398"
        fill="none" stroke="blue" stroke-width="2"/>
  <g transform="translate(100 210) rotate(-30)">
    <rect x="0" y="0" width="400" height="200" rx="50"
          fill="none" stroke="purple" stroke-width="30" />
  </g>
  <ellipse transform="translate(900 200) rotate(-30)" 
	    rx="250" ry="100"
        fill="none" stroke="blue" stroke-width="20"  />
  <circle cx="600" cy="200" r="100"
		fill="red" stroke="blue" stroke-width="10"  />
  <g stroke="green" >
    <line x1="100" y1="300" x2="300" y2="100"
            stroke-width="5"  />
    <line x1="300" y1="300" x2="500" y2="100"
            stroke-width="10"  />
  </g>
  <polyline fill="none" stroke="blue" stroke-width="10" 
            points="50,375
                    150,375 150,325 250,325 250,375
                    350,375 350,250 450,250 450,375
                    550,375 550,175 650,175 650,375
                    750,375 750,100 850,100 850,375
                    950,375 950,25 1050,25 1050,375
                    1150,375" />
  <polygon fill="lime" stroke="blue" stroke-width="10" 
            points="850,75  958,137.5 958,262.5
                    850,325 742,262.6 742,137.5" />
  <path d="M 100 100 L 300 100 L 200 300 z"
        fill="red" stroke="blue" stroke-width="33" />
  <path d="M200,300 L400,50 L600,300 
           L800,550 L1000,300"
        fill="none" stroke="#888888" stroke-width="2" />
  <path d="M200,300 Q400,50 600,300 T1000,300"
        fill="none" stroke="red" stroke-width="5"  />
  <text x="250" y="150" 
        font-family="Verdana" font-size="55" fill="blue" >Hello, out there</text>
</svg>
